<?xml version="1.0" encoding="UTF-8"?>
<svg xmlns:xodm="http://www.corel.com/coreldraw/odm/2003" xmlns="http://www.w3.org/2000/svg" xmlns:xlink="http://www.w3.org/1999/xlink" version="1.1" id="Layer_1" x="0px" y="0px" viewBox="0 0 2500 490" style="enable-background:new 0 0 2500 490;" xml:space="preserve">
<style type="text/css">
	.st0{fill:#FF4E17;}
</style>
<g id="Layer_x0020_1">
	<g id="_2205088938656">
		<path class="st0" d="M1015,109.3c-18.5,0-33.9,15.4-33.9,35s15.4,33.9,33.9,33.9c18.5,0,33.9-15.4,33.9-33.9    S1033.5,109.3,1015,109.3L1015,109.3z"></path>
		<polygon class="st0" points="1042.8,199.8 987.2,199.8 987.2,404.4 1042.8,404.4   "></polygon>
		<path class="st0" d="M1631,193.6c-22.6,0-46.3,9.3-59.6,30.9v-25.7h-53.5v205.7h55.5V286.1c0-23.7,14.4-42.2,38.1-42.2    c26.7,0,38.1,17.5,38.1,41.1v120.3h55.5V275.9c0-45.2-23.7-81.2-74-81.2l0,0V193.6z"></path>
		<path class="st0" d="M1834.6,192.6c-61.7,0-108,45.2-108,109s46.3,109,108,109s108-46.3,108-109S1896.3,192.6,1834.6,192.6z     M1834.6,360.2c-26.7,0-52.4-20.6-52.4-58.6s24.7-58.6,52.4-58.6c26.7,0,52.4,19.5,52.4,58.6S1862.4,360.2,1834.6,360.2z"></path>
		<path class="st0" d="M2198.7,193.6c-26.7,0-48.3,9.3-64.8,33.9c-10.3-22.6-32.9-33.9-60.7-33.9c-22.6,0-48.3,11.3-59.6,30.9v-24.7    h-53.5v205.7h55.5V285.1c0-22.6,14.4-40.1,38.1-40.1c24.7,0,36,16.5,36,39.1v122.4h55.5V286.1c0-22.6,14.4-40.1,38.1-40.1    c25.7,0,36,16.5,36,39.1v122.4h53.5V273.8c0-55.5-36-78.2-74-78.2l0,0V193.6z"></path>
		<polygon class="st0" points="2440.4,199.8 2390,320.1 2335.5,199.8 2273.8,199.8 2360.1,378.7 2311.8,485.6 2371.5,485.6     2500,199.8   "></polygon>
		<path class="st0" d="M1171.3,360.2c-26.7,0-52.4-20.6-52.4-58.6s24.7-58.6,52.4-58.6c16.5,0,31.9,7.2,40.1,22.6l52.4-17.5    c-16.5-33.9-50.4-55.5-92.6-55.5c-61.7,0-108,45.2-108,109s46.3,109,108,109c51.4,0,89.5-31.9,100.8-79.2h-57.6    c-8.2,18.5-24.7,27.8-43.2,27.8l0,0V360.2z"></path>
		<path class="st0" d="M1389.3,192.6c-61.7,0-108,45.2-108,109s46.3,109,108,109s108-46.3,108-109S1451,192.6,1389.3,192.6z     M1389.3,360.2c-26.7,0-52.4-20.6-52.4-58.6s24.7-58.6,52.4-58.6c26.7,0,52.4,19.5,52.4,58.6S1417.1,360.2,1389.3,360.2z"></path>
		<path class="st0" d="M914.2,224.4c11.3-15.4,13.4-29.8,13.4-47.3s-15.4-68.9-73-68.9H723v296.2h142.9c71,0,100.8-49.4,100.8-100.8    C966.7,280,956.4,249.1,914.2,224.4L914.2,224.4z M778.5,153.5h66.8c15.4,0,27.8,12.3,27.8,27.8S860.8,209,845.3,209h-66.8V153.5    L778.5,153.5z M858.7,359.2h-80.2V255.3h80.2c28.8,0,51.4,23.7,51.4,51.4c0,31.9-20.6,51.4-51.4,51.4l0,0V359.2z"></path>
		<path class="st0" d="M335.3,204.9c9.3-17.5,15.4-40.1,15.4-68.9c0-38.1-15.4-73-43.2-97.7s-64.8-37-108-37l-148.1-1    C22.6,0.2,0,23.9,0,51.7v438.1h258.1c96.7,0,153.2-80.2,153.2-153.2c0-55.5-30.9-105.9-76.1-132.7l0,0V204.9z M199.5,39.3    c68.9,0,113.1,41.1,113.1,97.7c0,75.1-56.6,109-113.1,109c-53.5,0-97.7-44.2-97.7-113.1V94.9c0-24.7-14.4-47.3-38.1-54.5v-2.1    h135.7l0,0V39.3z"></path>
	</g>
</g>
</svg>
